<svg width="17" height="17" viewBox="0 0 17 17" fill="none" xmlns="http://www.w3.org/2000/svg">
<path d="M16.2749 0.523315H4.23979C4.15112 0.523315 4.06609 0.558537 4.00339 0.621233C3.9407 0.683928 3.90548 0.768961 3.90548 0.857625V3.19779H0.896688C0.808023 3.19779 0.72299 3.23302 0.660295 3.29571C0.5976 3.35841 0.562378 3.44344 0.562378 3.5321V14.5643C0.562378 15.0963 0.773709 15.6065 1.14988 15.9827C1.52605 16.3589 2.03625 16.5702 2.56824 16.5702H14.6034C15.1354 16.5702 15.6456 16.3589 16.0218 15.9827C16.3979 15.6065 16.6093 15.0963 16.6093 14.5643V0.857625C16.6093 0.768961 16.574 0.683928 16.5113 0.621233C16.4486 0.558537 16.3636 0.523315 16.2749 0.523315ZM1.231 14.5643V3.86641H12.5975V14.5643C12.5986 15.0583 12.782 15.5344 13.1124 15.9016H2.56824C2.21358 15.9016 1.87345 15.7607 1.62267 15.5099C1.37189 15.2591 1.231 14.919 1.231 14.5643ZM15.9406 14.5643C15.9406 14.919 15.7997 15.2591 15.549 15.5099C15.2982 15.7607 14.9581 15.9016 14.6034 15.9016C14.2487 15.9016 13.9086 15.7607 13.6578 15.5099C13.407 15.2591 13.2662 14.919 13.2662 14.5643V3.5321C13.2662 3.44344 13.2309 3.35841 13.1682 3.29571C13.1055 3.23302 13.0205 3.19779 12.9318 3.19779H4.5741V1.19194H15.9406V14.5643Z" fill="white"/>
<path d="M2.90255 8.54681H5.57703C5.66569 8.54681 5.75072 8.51158 5.81342 8.44889C5.87611 8.38619 5.91134 8.30116 5.91134 8.2125V5.53802C5.91134 5.44935 5.87611 5.36432 5.81342 5.30162C5.75072 5.23893 5.66569 5.20371 5.57703 5.20371H2.90255C2.81388 5.20371 2.72885 5.23893 2.66615 5.30162C2.60346 5.36432 2.56824 5.44935 2.56824 5.53802V8.2125C2.56824 8.30116 2.60346 8.38619 2.66615 8.44889C2.72885 8.51158 2.81388 8.54681 2.90255 8.54681ZM3.23686 5.87233H5.24272V7.87819H3.23686V5.87233Z" fill="white"/>
<path d="M10.926 5.20371H7.58288C7.49422 5.20371 7.40918 5.23893 7.34649 5.30162C7.28379 5.36432 7.24857 5.44935 7.24857 5.53802C7.24857 5.62668 7.28379 5.71171 7.34649 5.77441C7.40918 5.8371 7.49422 5.87233 7.58288 5.87233H10.926C11.0146 5.87233 11.0997 5.8371 11.1624 5.77441C11.2251 5.71171 11.2603 5.62668 11.2603 5.53802C11.2603 5.44935 11.2251 5.36432 11.1624 5.30162C11.0997 5.23893 11.0146 5.20371 10.926 5.20371Z" fill="white"/>
<path d="M2.90255 10.5526H6.24565C6.33431 10.5526 6.41934 10.5173 6.48204 10.4546C6.54473 10.3919 6.57996 10.3069 6.57996 10.2183C6.57996 10.1296 6.54473 10.0446 6.48204 9.98186C6.41934 9.91916 6.33431 9.88394 6.24565 9.88394H2.90255C2.81388 9.88394 2.72885 9.91916 2.66615 9.98186C2.60346 10.0446 2.56824 10.1296 2.56824 10.2183C2.56824 10.3069 2.60346 10.3919 2.66615 10.4546C2.72885 10.5173 2.81388 10.5526 2.90255 10.5526Z" fill="white"/>
<path d="M2.90255 12.5584H6.91427C7.00293 12.5584 7.08796 12.5232 7.15066 12.4605C7.21335 12.3978 7.24858 12.3128 7.24858 12.2241C7.24858 12.1354 7.21335 12.0504 7.15066 11.9877C7.08796 11.925 7.00293 11.8898 6.91427 11.8898H2.90255C2.81388 11.8898 2.72885 11.925 2.66615 11.9877C2.60346 12.0504 2.56824 12.1354 2.56824 12.2241C2.56824 12.3128 2.60346 12.3978 2.66615 12.4605C2.72885 12.5232 2.81388 12.5584 2.90255 12.5584Z" fill="white"/>
<path d="M4.90841 13.8957H2.90255C2.81388 13.8957 2.72885 13.9309 2.66615 13.9936C2.60346 14.0563 2.56824 14.1413 2.56824 14.23C2.56824 14.3186 2.60346 14.4037 2.66615 14.4664C2.72885 14.5291 2.81388 14.5643 2.90255 14.5643H4.90841C4.99707 14.5643 5.0821 14.5291 5.1448 14.4664C5.20749 14.4037 5.24272 14.3186 5.24272 14.23C5.24272 14.1413 5.20749 14.0563 5.1448 13.9936C5.0821 13.9309 4.99707 13.8957 4.90841 13.8957Z" fill="white"/>
<path d="M10.926 9.88394H8.25151C8.16285 9.88394 8.07781 9.91916 8.01512 9.98186C7.95242 10.0446 7.9172 10.1296 7.9172 10.2183C7.9172 10.3069 7.95242 10.3919 8.01512 10.4546C8.07781 10.5173 8.16285 10.5526 8.25151 10.5526H10.926C11.0147 10.5526 11.0997 10.5173 11.1624 10.4546C11.2251 10.3919 11.2603 10.3069 11.2603 10.2183C11.2603 10.1296 11.2251 10.0446 11.1624 9.98186C11.0997 9.91916 11.0147 9.88394 10.926 9.88394Z" fill="white"/>
<path d="M10.926 11.8898H8.92013C8.83146 11.8898 8.74643 11.925 8.68373 11.9877C8.62104 12.0504 8.58582 12.1354 8.58582 12.2241C8.58582 12.3128 8.62104 12.3978 8.68373 12.4605C8.74643 12.5232 8.83146 12.5584 8.92013 12.5584H10.926C11.0147 12.5584 11.0997 12.5232 11.1624 12.4605C11.2251 12.3978 11.2603 12.3128 11.2603 12.2241C11.2603 12.1354 11.2251 12.0504 11.1624 11.9877C11.0997 11.925 11.0147 11.8898 10.926 11.8898Z" fill="white"/>
<path d="M10.926 13.8957H6.91427C6.8256 13.8957 6.74057 13.9309 6.67787 13.9936C6.61518 14.0563 6.57996 14.1413 6.57996 14.23C6.57996 14.3186 6.61518 14.4037 6.67787 14.4664C6.74057 14.5291 6.8256 14.5643 6.91427 14.5643H10.926C11.0147 14.5643 11.0997 14.5291 11.1624 14.4664C11.2251 14.4037 11.2603 14.3186 11.2603 14.23C11.2603 14.1413 11.2251 14.0563 11.1624 13.9936C11.0997 13.9309 11.0147 13.8957 10.926 13.8957Z" fill="white"/>
</svg>
