<svg width="32" height="32" viewBox="0 0 32 32" fill="none" xmlns="http://www.w3.org/2000/svg">
<path d="M16 0.177185C12.8754 0.177185 9.82086 1.10376 7.2228 2.83973C4.62473 4.5757 2.59978 7.04311 1.40402 9.92993C0.208261 12.8167 -0.104604 15.9933 0.504989 19.058C1.11458 22.1226 2.61925 24.9376 4.82873 27.1471C7.0382 29.3566 9.85325 30.8612 12.9179 31.4708C15.9825 32.0804 19.1591 31.7676 22.0459 30.5718C24.9327 29.376 27.4001 27.3511 29.1361 24.753C30.8721 22.155 31.7986 19.1005 31.7986 15.9758C31.7986 11.7857 30.1342 7.76731 27.1713 4.80449C24.2085 1.84168 20.1901 0.177185 16 0.177185ZM11.3552 20.273C11.1294 20.4378 10.8474 20.5062 10.5712 20.4631C10.295 20.4199 10.0473 20.2689 9.88246 20.0431C9.71765 19.8173 9.64929 19.5352 9.69242 19.259C9.73554 18.9828 9.88662 18.7351 10.1124 18.5703C10.5222 18.273 10.8557 17.8829 11.0856 17.432C11.3156 16.981 11.4355 16.482 11.4355 15.9758C11.4355 15.4696 11.3156 14.9706 11.0856 14.5196C10.8557 14.0687 10.5222 13.6786 10.1124 13.3813C9.88662 13.2165 9.73554 12.9687 9.69242 12.6925C9.64929 12.4163 9.71765 12.1343 9.88246 11.9085C10.0473 11.6827 10.295 11.5317 10.5712 11.4885C10.8474 11.4454 11.1294 11.5138 11.3552 11.6786C12.0327 12.1718 12.5839 12.8181 12.964 13.5649C13.3441 14.3117 13.5422 15.1378 13.5422 15.9758C13.5422 16.8138 13.3441 17.6398 12.964 18.3867C12.5839 19.1335 12.0327 19.7798 11.3552 20.273ZM13.3669 23.9243C13.144 23.9251 12.9266 23.8551 12.746 23.7245C12.5654 23.5939 12.4309 23.4094 12.3618 23.1974C12.2927 22.9855 12.2926 22.7571 12.3616 22.5452C12.4305 22.3332 12.565 22.1486 12.7455 22.0179C13.6992 21.3253 14.4754 20.4167 15.0106 19.3665C15.5458 18.3164 15.8248 17.1545 15.8248 15.9758C15.8248 14.7971 15.5458 13.6352 15.0106 12.585C14.4754 11.5349 13.6992 10.6263 12.7455 9.93371C12.5197 9.7689 12.3686 9.52114 12.3255 9.24494C12.3042 9.10818 12.31 8.96855 12.3426 8.83403C12.3752 8.69951 12.434 8.57273 12.5156 8.46092C12.5972 8.34912 12.7 8.25448 12.8182 8.18242C12.9364 8.11036 13.0676 8.06227 13.2043 8.04092C13.4805 7.9978 13.7625 8.06616 13.9883 8.23097C15.2097 9.11953 16.2037 10.2844 16.889 11.6304C17.5743 12.9764 17.9315 14.4654 17.9315 15.9758C17.9315 17.4862 17.5743 18.9752 16.889 20.3212C16.2037 21.6672 15.2097 22.8321 13.9883 23.7206C13.8081 23.8527 13.5904 23.924 13.3669 23.9243ZM16.6214 27.1682C16.3943 27.333 16.1109 27.4008 15.8337 27.3567C15.5565 27.3126 15.3082 27.1602 15.1434 26.933C14.9786 26.7058 14.9108 26.4225 14.9549 26.1453C14.999 25.8681 15.1514 25.6198 15.3786 25.455C16.8763 24.367 18.0951 22.9399 18.9355 21.2906C19.776 19.6412 20.2141 17.8164 20.2141 15.9653C20.2141 14.1141 19.776 12.2893 18.9355 10.6399C18.0951 8.99059 16.8763 7.56357 15.3786 6.47556C15.1528 6.31076 15.0017 6.063 14.9586 5.7868C14.9155 5.5106 14.9839 5.22858 15.1487 5.00278C15.3135 4.77699 15.5612 4.62591 15.8374 4.58278C16.1136 4.53966 16.3956 4.60802 16.6214 4.77283C18.3861 6.05722 19.8221 7.74069 20.8122 9.68583C21.8022 11.631 22.3183 13.7827 22.3183 15.9653C22.3183 18.1479 21.8022 20.2996 20.8122 22.2447C19.8221 24.1898 18.3861 25.8733 16.6214 27.1577V27.1682Z" fill="#127D77"/>
</svg>
