<svg width="20" height="18" viewBox="0 0 20 18" fill="none" xmlns="http://www.w3.org/2000/svg">
<path d="M10.2869 11.4819L13.4722 8.0531C13.8374 7.66762 13.7968 7.07925 13.4316 6.71405C13.0461 6.34886 12.4578 6.38944 12.0926 6.75463L9.59708 9.45301L8.46092 8.23569C8.09572 7.85021 7.50736 7.82992 7.12187 8.19512C6.73639 8.56031 6.7161 9.14868 7.0813 9.53416L8.90726 11.5022C9.27246 11.8876 9.92169 11.8876 10.2869 11.4819Z" fill="white"/>
<path d="M18.3414 6.77492H17.7125C17.1038 3.20414 13.9794 0.485474 10.2463 0.485474C6.51322 0.485474 3.40907 3.20414 2.78013 6.77492H2.17147C1.31935 6.77492 0.609253 7.48502 0.609253 8.33714V10.9544C0.609253 11.3804 0.771561 11.7659 1.07589 12.0702C1.38022 12.3543 1.7657 12.5166 2.17147 12.5166H3.57138C3.97715 12.5166 4.30177 12.192 4.30177 11.7862V8.0531C4.30177 4.78664 6.95956 2.12885 10.226 2.12885C13.4925 2.12885 16.1503 4.78664 16.1503 8.0531V13.1455C16.1503 14.4846 15.0547 15.5801 13.7156 15.5801H12.3766C12.2752 15.1541 11.91 14.8498 11.4433 14.8498H9.029C8.4812 14.8498 8.05514 15.2961 8.05514 15.8236V16.4931C8.05514 17.0409 8.50149 17.467 9.029 17.467H11.4839C11.9303 17.467 12.2954 17.1424 12.4172 16.7366H13.7562C15.7242 16.7366 17.3473 15.1338 17.3473 13.1455V12.4963H18.3414C18.7472 12.4963 19.153 12.334 19.437 12.0499C19.7413 11.7456 19.9037 11.3601 19.9037 10.9341V8.33714C19.9037 7.48502 19.2138 6.79521 18.3414 6.77492Z" fill="white"/>
</svg>
