<svg width="16" height="16" viewBox="0 0 16 16" fill="none" xmlns="http://www.w3.org/2000/svg">
<path d="M8.57542 9.86237H8.67542V9.76237V8.02929C9.70769 7.81598 10.4836 6.90192 10.4836 5.80644C10.4836 4.55278 9.4674 3.53649 8.21378 3.53649C6.96017 3.53649 5.94393 4.55277 5.94393 5.80639V6.16803V6.26803H6.04393H6.76721H6.86721V6.16803V5.80639C6.86721 5.06267 7.4701 4.45978 8.21378 4.45978C8.95747 4.45978 9.56035 5.06268 9.56035 5.80644C9.56035 6.55013 8.95747 7.15301 8.21378 7.15301H7.85214H7.75214V7.25301V9.76237V9.86237H7.85214H8.57542ZM8.20374 15.6707C12.4534 15.6707 15.8982 12.2259 15.8982 7.9762C15.8982 3.72647 12.4534 0.281714 8.20374 0.281714C3.95436 0.281714 0.509253 3.72661 0.509253 7.9762C0.509253 12.2258 3.95436 15.6707 8.20374 15.6707ZM8.20374 1.13578C11.9817 1.13578 15.0442 4.19817 15.0442 7.9762C15.0442 11.7542 11.9817 14.8166 8.20374 14.8166C4.42604 14.8166 1.36332 11.7541 1.36332 7.9762C1.36332 4.19831 4.42604 1.13578 8.20374 1.13578ZM7.3905 11.5926C7.3905 12.0473 7.75909 12.4159 8.21378 12.4159C8.66847 12.4159 9.03707 12.0473 9.03707 11.5926C9.03707 11.1379 8.66847 10.7693 8.21378 10.7693C7.75909 10.7693 7.3905 11.1379 7.3905 11.5926Z" fill="white" stroke="white" stroke-width="0.2"/>
</svg>
