<svg width="163" height="65" viewBox="0 0 163 65" fill="none" xmlns="http://www.w3.org/2000/svg">
<path d="M52.4571 32.4339C52.9571 32.8939 53.6171 33.2539 54.4371 33.5139C55.2571 33.7739 56.0371 33.9039 56.7771 33.9039C58.0371 33.9039 58.6671 33.6339 58.6671 33.0939C58.6671 32.8139 58.3571 32.5839 57.7371 32.4039C57.1171 32.2239 56.3671 32.0339 55.4871 31.8339C54.6271 31.6139 53.7571 31.3339 52.8771 30.9939C51.9971 30.6339 51.2471 30.0439 50.6271 29.2239C50.0071 28.4039 49.6971 27.3939 49.6971 26.1939C49.6971 24.6739 50.2871 23.4539 51.4671 22.5339C52.6671 21.5939 54.2471 21.1239 56.2071 21.1239C59.2871 21.1239 61.6071 22.0339 63.1671 23.8539L60.2871 26.7639C59.8671 26.3239 59.2671 25.9939 58.4871 25.7739C57.7271 25.5339 57.0071 25.4139 56.3271 25.4139C55.1471 25.4139 54.5571 25.6739 54.5571 26.1939C54.5571 26.4139 54.7771 26.6039 55.2171 26.7639C55.6771 26.9239 56.2371 27.0639 56.8971 27.1839C57.5571 27.3039 58.2771 27.4939 59.0571 27.7539C59.8571 28.0139 60.5871 28.3339 61.2471 28.7139C61.9071 29.0739 62.4571 29.6239 62.8971 30.3639C63.3571 31.0839 63.5871 31.9339 63.5871 32.9139C63.5871 34.7339 62.9471 36.1139 61.6671 37.0539C60.4071 37.9739 58.7771 38.4339 56.7771 38.4339C55.3971 38.4339 54.0171 38.1939 52.6371 37.7139C51.2571 37.2339 50.1071 36.5339 49.1871 35.6139L52.4571 32.4339Z" fill="white"/>
<path d="M67.6641 23.6739C69.1641 22.0139 70.9741 21.1839 73.0941 21.1839C74.0941 21.1839 75.0241 21.4339 75.8841 21.9339C76.7441 22.4139 77.4241 23.0539 77.9241 23.8539L78.2241 21.4839H82.6341V37.9839H78.2241L77.9241 35.5839C77.4241 36.3639 76.7441 37.0039 75.8841 37.5039C75.0241 37.9839 74.0941 38.2239 73.0941 38.2239C70.9741 38.2239 69.1641 37.3939 67.6641 35.7339C66.1641 34.0539 65.4141 32.0439 65.4141 29.7039C65.4141 27.3639 66.1641 25.3539 67.6641 23.6739ZM71.4141 32.3439C72.1141 33.0639 72.9841 33.4239 74.0241 33.4239C75.0641 33.4239 75.9441 33.0639 76.6641 32.3439C77.4041 31.6239 77.7741 30.7439 77.7741 29.7039C77.7741 28.6639 77.4041 27.7839 76.6641 27.0639C75.9441 26.3239 75.0641 25.9539 74.0241 25.9539C72.9841 25.9539 72.1041 26.3239 71.3841 27.0639C70.6841 27.7839 70.3341 28.6639 70.3341 29.7039C70.3341 30.7439 70.6941 31.6239 71.4141 32.3439Z" fill="white"/>
<path d="M91.6423 25.7739V37.9839L86.7823 37.9539V25.7739H84.6823V21.4839H86.7823V21.1539C86.7823 18.7339 87.4223 16.9439 88.7023 15.7839C89.9823 14.6239 91.6023 14.0439 93.5623 14.0439C94.3223 14.0439 95.1223 14.1739 95.9623 14.4339L94.4623 18.7839C94.2223 18.7239 93.9723 18.6939 93.7123 18.6939C93.0923 18.6939 92.5923 18.9039 92.2123 19.3239C91.8323 19.7439 91.6423 20.3539 91.6423 21.1539V21.4839H100.702V37.9839H95.8423V25.7739H91.6423ZM100.162 19.5639C99.6423 20.0839 99.0123 20.3439 98.2723 20.3439C97.5323 20.3439 96.8923 20.0839 96.3523 19.5639C95.8323 19.0239 95.5723 18.3839 95.5723 17.6439C95.5723 16.8839 95.8323 16.2439 96.3523 15.7239C96.8923 15.1839 97.5323 14.9139 98.2723 14.9139C99.0123 14.9139 99.6423 15.1839 100.162 15.7239C100.702 16.2639 100.972 16.9039 100.972 17.6439C100.972 18.3839 100.702 19.0239 100.162 19.5639Z" fill="white"/>
<path d="M103.869 37.9839V21.4839H108.279L108.639 23.6739C109.579 22.1339 111.149 21.3639 113.349 21.3639C113.969 21.3639 114.509 21.4039 114.969 21.4839L113.979 26.1339C113.859 26.1139 113.699 26.1039 113.499 26.1039C110.319 26.1039 108.729 27.8639 108.729 31.3839V37.9839H103.869Z" fill="white"/>
<path d="M117.141 37.9839V21.4839H122.001V37.9839H117.141ZM116.871 17.6439C116.871 16.9039 117.131 16.2639 117.651 15.7239C118.191 15.1839 118.831 14.9139 119.571 14.9139C120.311 14.9139 120.941 15.1839 121.461 15.7239C122.001 16.2639 122.271 16.9039 122.271 17.6439C122.271 18.3839 122.011 19.0139 121.491 19.5339C120.951 20.0739 120.311 20.3439 119.571 20.3439C118.831 20.3439 118.191 20.0839 117.651 19.5639C117.131 19.0239 116.871 18.3839 116.871 17.6439Z" fill="white"/>
<path d="M125.108 33.8739C125.608 33.3739 126.228 33.1239 126.968 33.1239C127.688 33.1239 128.298 33.3839 128.798 33.9039C129.318 34.4039 129.578 35.0239 129.578 35.7639C129.578 36.4839 129.318 37.1039 128.798 37.6239C128.298 38.1439 127.688 38.4039 126.968 38.4039C126.228 38.4039 125.598 38.1439 125.078 37.6239C124.578 37.1039 124.328 36.4839 124.328 35.7639C124.328 35.0239 124.588 34.3939 125.108 33.8739Z" fill="white"/>
<mask id="mask0_5491_1270" style="mask-type:alpha" maskUnits="userSpaceOnUse" x="0" y="8" width="42" height="43">
<circle cx="20.881" cy="29.72" r="20.881" fill="#D9D9D9"/>
</mask>
<g mask="url(#mask0_5491_1270)">
<path d="M20.881 50.7424C32.4132 50.7424 41.762 41.3303 41.762 29.72C41.762 18.1097 32.4132 8.69763 20.881 8.69763C9.34875 8.69763 9.92417e-06 18.1097 9.92417e-06 29.72C9.92417e-06 41.3303 9.34875 50.7424 20.881 50.7424Z" fill="black"/>
<path d="M41.7562 8.69763H4.3679e-07V50.7366H41.7562V8.69763Z" fill="url(#paint0_linear_5491_1270)"/>
<path d="M31.878 20.5238L31.3647 21.0405C32.1894 21.2843 32.7314 21.6791 32.7314 22.1262C32.7314 22.8635 31.2725 23.4615 29.479 23.4615C27.6856 23.4615 26.2267 22.8635 26.2267 22.1262C26.2267 21.6733 26.7687 21.2785 27.6049 21.0347L27.0917 20.518C26.1344 20.8838 25.5116 21.4701 25.5116 22.1262C25.5116 23.2409 27.2877 24.1407 29.479 24.1407C31.6704 24.1407 33.4465 23.2409 33.4465 22.1262C33.4465 21.4701 32.8352 20.8896 31.8837 20.5238H31.878Z" fill="white"/>
<path d="M33.0024 13.7602C33.0024 13.7602 31.8318 11.8966 29.4848 11.943C27.1378 11.8966 25.9671 13.7602 25.9671 13.7602C24.5832 15.6064 25.7595 17.7777 25.7595 17.7777C26.7341 19.682 28.3661 21.3424 28.3661 21.3424C28.689 21.6559 29.0696 21.9056 29.4848 21.9172C29.9 21.9056 30.2806 21.6559 30.6035 21.3424C30.6035 21.3424 32.2355 19.682 33.21 17.7777C33.21 17.7777 34.3922 15.6064 33.0024 13.7602ZM29.4848 17.679C28.6025 17.679 27.8817 16.9591 27.8817 16.065C27.8817 15.1768 28.5967 14.4511 29.4848 14.4511C30.3671 14.4511 31.0879 15.171 31.0879 16.065C31.0879 16.9591 30.3729 17.679 29.4848 17.679Z" fill="white"/>
<path d="M25.2868 21.5456C25.16 21.8011 25.1196 22.0855 25.1657 22.3642C25.2003 22.5732 25.2868 22.7706 25.4079 22.939C24.5372 23.0202 23.6145 23.1422 22.6342 23.3105C21.5962 23.4905 20.6274 23.6995 19.7393 23.9259C19.7393 23.9259 17.721 24.4136 15.9449 25.1161C15.5701 25.2612 15.2125 25.4528 14.8838 25.6909C14.7108 25.8186 14.5494 25.9521 14.3937 26.1031C14.3129 26.2076 13.9612 26.6952 14.1053 27.2119C14.1226 27.2758 14.1918 27.4442 14.3937 27.6648C14.6359 27.9377 15.0857 28.1583 16.8791 28.3615C17.1155 28.3905 17.3116 28.4079 17.6922 28.4427C17.9921 28.4718 18.5168 28.5182 19.1223 28.5647C19.9527 28.6285 20.5697 28.6576 20.737 28.6692C21.948 28.733 23.7068 28.9536 24.9927 29.122C27.2187 29.4123 29.6291 29.8245 30.3961 30.3238C30.3961 30.3238 35.6841 32.1584 32.8354 36.4139C32.8354 36.4139 31.7801 38.6317 26.0538 40.7566C26.0538 40.7566 19.624 42.8582 14.2495 43.6536C12.5195 43.9323 10.7492 44.1936 8.93267 44.4374C5.85329 44.8438 2.8777 45.1631 -0.00561523 45.3953V38.295C2.38177 38.2079 4.84413 38.0628 7.38721 37.8654C11.3085 37.5519 15.0395 37.1106 18.5629 36.5939C18.5629 36.5939 24.0816 36.0308 27.1668 34.231C27.1668 34.231 28.8391 33.1105 26.4056 32.0423C26.4056 32.0423 25.2926 31.4791 19.7105 30.9798C19.7105 30.9798 13.2519 30.8347 11.4585 28.8491C11.4585 28.8491 10.8876 28.3034 10.8703 27.4732C10.8472 26.2076 12.1735 25.2845 13.0443 24.6807C13.9439 24.0595 14.7339 23.7808 16.066 23.3105C16.8964 23.0202 17.7383 22.7706 18.5918 22.5732C20.0104 22.2249 21.106 22.0565 22.0575 21.9172C22.911 21.7952 24.0009 21.6559 25.2753 21.5514L25.2868 21.5456Z" fill="white"/>
</g>
<defs>
<linearGradient id="paint0_linear_5491_1270" x1="20.9503" y1="9.27828" x2="20.8042" y2="50.1036" gradientUnits="userSpaceOnUse">
<stop stop-color="#139A89"/>
<stop offset="1" stop-color="#162154"/>
</linearGradient>
</defs>
</svg>
