<svg width="18" height="18" viewBox="0 0 18 18" fill="none" xmlns="http://www.w3.org/2000/svg">
<path d="M17.4799 8.75905C17.4799 7.44564 17.4799 6.72127 17.1323 6.03936C16.8245 5.43705 16.3442 4.95413 15.7419 4.649C15.0919 4.31733 14.6328 4.30141 13.2345 4.30141V4.03607C13.2345 3.21884 13.2345 2.76776 13.0965 2.31669C12.7861 1.2978 11.9927 0.504448 10.9738 0.194005C10.544 0.0639905 9.96822 0.0560303 8.98913 0.0560303C8.01004 0.0560303 7.43427 0.0613371 7.00442 0.194005C5.98553 0.504448 5.19218 1.2978 4.88173 2.31669C4.74376 2.76776 4.74376 3.21884 4.74376 4.03607V4.30141H4.69069C3.66119 4.30141 2.91825 4.30141 2.23633 4.649C1.63402 4.95679 1.15111 5.43705 0.843318 6.03936C0.495727 6.72127 0.495728 7.44299 0.495728 8.75905V12.5799C0.495728 13.8933 0.495727 14.6177 0.843318 15.2996C1.15111 15.9019 1.63137 16.3848 2.23368 16.6899C2.91559 17.0375 3.63731 17.0375 4.95337 17.0375H13.0196C14.333 17.0375 15.0574 17.0375 15.7393 16.6899C16.3416 16.3822 16.8245 15.9019 17.1296 15.2996C17.4772 14.6177 17.4772 13.896 17.4772 12.5799V8.75905H17.4799ZM6.86645 4.03607C6.86645 3.46294 6.86645 3.08351 6.91155 2.93227C7.01503 2.59264 7.27772 2.32731 7.61204 2.22648C7.80043 2.17872 8.485 2.17872 8.98648 2.17872C9.48797 2.17872 10.1752 2.17872 10.3556 2.22383C10.6952 2.32731 10.9606 2.58999 11.0641 2.93227C11.1092 3.08351 11.1092 3.46294 11.1092 4.03607V4.30141H6.86379V4.03607H6.86645ZM15.3572 12.5799C15.3572 13.5006 15.3572 14.1082 15.2405 14.3364C15.1396 14.5354 14.9751 14.6999 14.7761 14.8008C14.5479 14.9175 13.9403 14.9175 13.0196 14.9175H4.95337C4.03266 14.9175 3.42504 14.9175 3.19685 14.8008C2.99519 14.6973 2.83599 14.5381 2.73251 14.3364C2.61576 14.1082 2.61576 13.5006 2.61576 12.5799V8.75905C2.61576 7.83834 2.61576 7.23072 2.73251 7.00253C2.83599 6.80087 2.99519 6.64167 3.19685 6.53819C3.42504 6.42144 3.98224 6.42144 4.68804 6.42144H13.0196C14.4046 6.42144 14.5692 6.43206 14.7761 6.53819C14.9751 6.63902 15.1396 6.80353 15.2405 7.00253C15.3572 7.23072 15.3572 7.83834 15.3572 8.75905V12.5799Z" fill="white"/>
</svg>
