<svg width="132" height="43" viewBox="0 0 132 43" fill="none" xmlns="http://www.w3.org/2000/svg">
<path d="M51.6771 27.5235C51.6971 28.0835 51.8271 28.5635 52.0671 28.9635C52.3071 29.3435 52.6171 29.6535 52.9971 29.8935C53.3971 30.1135 53.8371 30.2735 54.3171 30.3735C54.8171 30.4735 55.3271 30.5235 55.8471 30.5235C56.2471 30.5235 56.6671 30.4935 57.1071 30.4335C57.5471 30.3735 57.9471 30.2635 58.3071 30.1035C58.6871 29.9435 58.9971 29.7135 59.2371 29.4135C59.4771 29.0935 59.5971 28.6935 59.5971 28.2135C59.5971 27.5535 59.3471 27.0535 58.8471 26.7135C58.3471 26.3735 57.7171 26.1035 56.9571 25.9035C56.2171 25.6835 55.4071 25.4935 54.5271 25.3335C53.6471 25.1535 52.8271 24.9135 52.0671 24.6135C51.3271 24.2935 50.7071 23.8535 50.2071 23.2935C49.7071 22.7335 49.4571 21.9535 49.4571 20.9535C49.4571 20.1735 49.6271 19.5035 49.9671 18.9435C50.3271 18.3835 50.7771 17.9335 51.3171 17.5935C51.8771 17.2335 52.4971 16.9735 53.1771 16.8135C53.8771 16.6335 54.5671 16.5435 55.2471 16.5435C56.1271 16.5435 56.9371 16.6235 57.6771 16.7835C58.4171 16.9235 59.0671 17.1835 59.6271 17.5635C60.2071 17.9235 60.6671 18.4235 61.0071 19.0635C61.3471 19.6835 61.5471 20.4635 61.6071 21.4035H59.0571C59.0171 20.9035 58.8871 20.4935 58.6671 20.1735C58.4471 19.8335 58.1671 19.5635 57.8271 19.3635C57.4871 19.1635 57.1071 19.0235 56.6871 18.9435C56.2871 18.8435 55.8771 18.7935 55.4571 18.7935C55.0771 18.7935 54.6871 18.8235 54.2871 18.8835C53.9071 18.9435 53.5571 19.0535 53.2371 19.2135C52.9171 19.3535 52.6571 19.5535 52.4571 19.8135C52.2571 20.0535 52.1571 20.3735 52.1571 20.7735C52.1571 21.2135 52.3071 21.5835 52.6071 21.8835C52.9271 22.1635 53.3271 22.4035 53.8071 22.6035C54.2871 22.7835 54.8271 22.9435 55.4271 23.0835C56.0271 23.2035 56.6271 23.3335 57.2271 23.4735C57.8671 23.6135 58.4871 23.7835 59.0871 23.9835C59.7071 24.1835 60.2471 24.4535 60.7071 24.7935C61.1871 25.1135 61.5671 25.5235 61.8471 26.0235C62.1471 26.5235 62.2971 27.1435 62.2971 27.8835C62.2971 28.8235 62.0971 29.6035 61.6971 30.2235C61.3171 30.8435 60.8071 31.3435 60.1671 31.7235C59.5471 32.1035 58.8371 32.3635 58.0371 32.5035C57.2571 32.6635 56.4771 32.7435 55.6971 32.7435C54.8371 32.7435 54.0171 32.6535 53.2371 32.4735C52.4571 32.2935 51.7671 32.0035 51.1671 31.6035C50.5671 31.1835 50.0871 30.6435 49.7271 29.9835C49.3671 29.3035 49.1671 28.4835 49.1271 27.5235H51.6771ZM78.8571 32.3535C78.4171 32.6135 77.8071 32.7435 77.0271 32.7435C76.3671 32.7435 75.8371 32.5635 75.4371 32.2035C75.0571 31.8235 74.8671 31.2135 74.8671 30.3735C74.1671 31.2135 73.3471 31.8235 72.4071 32.2035C71.4871 32.5635 70.4871 32.7435 69.4071 32.7435C68.7071 32.7435 68.0371 32.6635 67.3971 32.5035C66.7771 32.3435 66.2371 32.0935 65.7771 31.7535C65.3171 31.4135 64.9471 30.9735 64.6671 30.4335C64.4071 29.8735 64.2771 29.2035 64.2771 28.4235C64.2771 27.5435 64.4271 26.8235 64.7271 26.2635C65.0271 25.7035 65.4171 25.2535 65.8971 24.9135C66.3971 24.5535 66.9571 24.2835 67.5771 24.1035C68.2171 23.9235 68.8671 23.7735 69.5271 23.6535C70.2271 23.5135 70.8871 23.4135 71.5071 23.3535C72.1471 23.2735 72.7071 23.1735 73.1871 23.0535C73.6671 22.9135 74.0471 22.7235 74.3271 22.4835C74.6071 22.2235 74.7471 21.8535 74.7471 21.3735C74.7471 20.8135 74.6371 20.3635 74.4171 20.0235C74.2171 19.6835 73.9471 19.4235 73.6071 19.2435C73.2871 19.0635 72.9171 18.9435 72.4971 18.8835C72.0971 18.8235 71.6971 18.7935 71.2971 18.7935C70.2171 18.7935 69.3171 19.0035 68.5971 19.4235C67.8771 19.8235 67.4871 20.5935 67.4271 21.7335H64.8771C64.9171 20.7735 65.1171 19.9635 65.4771 19.3035C65.8371 18.6435 66.3171 18.1135 66.9171 17.7135C67.5171 17.2935 68.1971 16.9935 68.9571 16.8135C69.7371 16.6335 70.5671 16.5435 71.4471 16.5435C72.1471 16.5435 72.8371 16.5935 73.5171 16.6935C74.2171 16.7935 74.8471 17.0035 75.4071 17.3235C75.9671 17.6235 76.4171 18.0535 76.7571 18.6135C77.0971 19.1735 77.2671 19.9035 77.2671 20.8035V28.7835C77.2671 29.3835 77.2971 29.8235 77.3571 30.1035C77.4371 30.3835 77.6771 30.5235 78.0771 30.5235C78.2971 30.5235 78.5571 30.4735 78.8571 30.3735V32.3535ZM74.7171 24.4035C74.3971 24.6435 73.9771 24.8235 73.4571 24.9435C72.9371 25.0435 72.3871 25.1335 71.8071 25.2135C71.2471 25.2735 70.6771 25.3535 70.0971 25.4535C69.5171 25.5335 68.9971 25.6735 68.5371 25.8735C68.0771 26.0735 67.6971 26.3635 67.3971 26.7435C67.1171 27.1035 66.9771 27.6035 66.9771 28.2435C66.9771 28.6635 67.0571 29.0235 67.2171 29.3235C67.3971 29.6035 67.6171 29.8335 67.8771 30.0135C68.1571 30.1935 68.4771 30.3235 68.8371 30.4035C69.1971 30.4835 69.5771 30.5235 69.9771 30.5235C70.8171 30.5235 71.5371 30.4135 72.1371 30.1935C72.7371 29.9535 73.2271 29.6635 73.6071 29.3235C73.9871 28.9635 74.2671 28.5835 74.4471 28.1835C74.6271 27.7635 74.7171 27.3735 74.7171 27.0135V24.4035ZM90.2604 32.4135V16.9035H92.8104V32.4135H90.2604ZM90.2604 14.1135V10.9935H92.8104V14.1135H90.2604ZM82.2804 19.1535H79.6704V16.9035H82.2804V14.5935C82.2804 13.3335 82.6404 12.3835 83.3604 11.7435C84.1004 11.0835 85.1704 10.7535 86.5704 10.7535C86.8104 10.7535 87.0804 10.7735 87.3804 10.8135C87.7004 10.8535 87.9804 10.9135 88.2204 10.9935V13.2135C88.0004 13.1335 87.7604 13.0835 87.5004 13.0635C87.2404 13.0235 87.0004 13.0035 86.7804 13.0035C86.1604 13.0035 85.6804 13.1235 85.3404 13.3635C85.0004 13.6035 84.8304 14.0635 84.8304 14.7435V16.9035H87.8304V19.1535H84.8304V32.4135H82.2804V19.1535ZM96.6678 16.9035H99.0678V20.1735H99.1278C99.7478 18.9135 100.508 17.9835 101.408 17.3835C102.308 16.7835 103.448 16.5035 104.828 16.5435V19.2435C103.808 19.2435 102.938 19.3835 102.218 19.6635C101.498 19.9435 100.918 20.3535 100.478 20.8935C100.038 21.4335 99.7178 22.0935 99.5178 22.8735C99.3178 23.6335 99.2178 24.5135 99.2178 25.5135V32.4135H96.6678V16.9035ZM109.448 14.1135H106.898V10.9935H109.448V14.1135ZM106.898 16.9035H109.448V32.4135H106.898V16.9035ZM113.968 29.0835H117.298V32.4135H113.968V29.0835Z" fill="white"/>
<mask id="mask0_6759_230" style="mask-type:alpha" maskUnits="userSpaceOnUse" x="0" y="0" width="42" height="43">
<circle cx="20.881" cy="21.1494" r="20.881" fill="#D9D9D9"/>
</mask>
<g mask="url(#mask0_6759_230)">
<path d="M20.881 42.1718C32.4132 42.1718 41.762 32.7598 41.762 21.1494C41.762 9.53911 32.4132 0.127075 20.881 0.127075C9.34875 0.127075 9.92417e-06 9.53911 9.92417e-06 21.1494C9.92417e-06 32.7598 9.34875 42.1718 20.881 42.1718Z" fill="black"/>
<path d="M41.7562 0.127076H4.3679e-07V42.166H41.7562V0.127076Z" fill="url(#paint0_linear_6759_230)"/>
<path d="M31.878 11.9532L31.3647 12.47C32.1894 12.7138 32.7314 13.1086 32.7314 13.5556C32.7314 14.2929 31.2725 14.8909 29.479 14.8909C27.6856 14.8909 26.2267 14.2929 26.2267 13.5556C26.2267 13.1028 26.7687 12.708 27.6049 12.4641L27.0917 11.9474C26.1344 12.3132 25.5116 12.8996 25.5116 13.5556C25.5116 14.6703 27.2877 15.5702 29.479 15.5702C31.6704 15.5702 33.4465 14.6703 33.4465 13.5556C33.4465 12.8996 32.8352 12.319 31.8837 11.9532H31.878Z" fill="white"/>
<path d="M33.0024 5.18963C33.0024 5.18963 31.8318 3.32601 29.4848 3.37245C27.1378 3.32601 25.9671 5.18963 25.9671 5.18963C24.5832 7.03583 25.7595 9.20716 25.7595 9.20716C26.7341 11.1114 28.3661 12.7718 28.3661 12.7718C28.689 13.0854 29.0696 13.335 29.4848 13.3466C29.9 13.335 30.2806 13.0854 30.6035 12.7718C30.6035 12.7718 32.2355 11.1114 33.21 9.20716C33.21 9.20716 34.3922 7.03583 33.0024 5.18963ZM29.4848 9.10846C28.6025 9.10846 27.8817 8.38856 27.8817 7.49448C27.8817 6.60621 28.5967 5.8805 29.4848 5.8805C30.3671 5.8805 31.0879 6.60041 31.0879 7.49448C31.0879 8.38856 30.3729 9.10846 29.4848 9.10846Z" fill="white"/>
<path d="M25.2868 12.975C25.16 13.2305 25.1196 13.515 25.1657 13.7936C25.2003 14.0027 25.2868 14.2 25.4079 14.3684C24.5372 14.4497 23.6145 14.5716 22.6342 14.74C21.5962 14.9199 20.6274 15.129 19.7393 15.3554C19.7393 15.3554 17.721 15.8431 15.9449 16.5455C15.5701 16.6907 15.2125 16.8823 14.8838 17.1203C14.7108 17.248 14.5494 17.3816 14.3937 17.5325C14.3129 17.637 13.9612 18.1247 14.1053 18.6414C14.1226 18.7052 14.1918 18.8736 14.3937 19.0942C14.6359 19.3671 15.0857 19.5877 16.8791 19.7909C17.1155 19.8199 17.3116 19.8374 17.6922 19.8722C17.9921 19.9012 18.5168 19.9477 19.1223 19.9941C19.9527 20.058 20.5697 20.087 20.737 20.0986C21.948 20.1625 23.7068 20.3831 24.9927 20.5515C27.2187 20.8417 29.6291 21.2539 30.3961 21.7532C30.3961 21.7532 35.6841 23.5878 32.8354 27.8434C32.8354 27.8434 31.7801 30.0612 26.0538 32.186C26.0538 32.186 19.624 34.2877 14.2495 35.0831C12.5195 35.3617 10.7492 35.623 8.93267 35.8668C5.85329 36.2732 2.8777 36.5925 -0.00561523 36.8248V29.7244C2.38177 29.6373 4.84413 29.4922 7.38721 29.2948C11.3085 28.9813 15.0395 28.5401 18.5629 28.0234C18.5629 28.0234 24.0816 27.4602 27.1668 25.6605C27.1668 25.6605 28.8391 24.54 26.4056 23.4717C26.4056 23.4717 25.2926 22.9086 19.7105 22.4093C19.7105 22.4093 13.2519 22.2641 11.4585 20.2786C11.4585 20.2786 10.8876 19.7329 10.8703 18.9026C10.8472 17.637 12.1735 16.7139 13.0443 16.1101C13.9439 15.4889 14.7339 15.2102 16.066 14.74C16.8964 14.4497 17.7383 14.2 18.5918 14.0027C20.0104 13.6543 21.106 13.4859 22.0575 13.3466C22.911 13.2247 24.0009 13.0854 25.2753 12.9809L25.2868 12.975Z" fill="white"/>
</g>
<defs>
<linearGradient id="paint0_linear_6759_230" x1="20.9503" y1="0.707723" x2="20.8042" y2="41.5331" gradientUnits="userSpaceOnUse">
<stop stop-color="#139A89"/>
<stop offset="1" stop-color="#162154"/>
</linearGradient>
</defs>
</svg>
