<svg width="42" height="43" viewBox="0 0 42 43" fill="none" xmlns="http://www.w3.org/2000/svg">
<path d="M20.881 42.7424C32.4132 42.7424 41.762 33.3303 41.762 21.72C41.762 10.1097 32.4132 0.697632 20.881 0.697632C9.34875 0.697632 9.92417e-06 10.1097 9.92417e-06 21.72C9.92417e-06 33.3303 9.34875 42.7424 20.881 42.7424Z" fill="black"/>
<path d="M41.7562 0.697632H4.3679e-07V42.7366H41.7562V0.697632Z" fill="url(#paint0_linear_5491_1275)"/>
<path d="M31.878 12.5238L31.3647 13.0405C32.1894 13.2843 32.7314 13.6791 32.7314 14.1262C32.7314 14.8635 31.2725 15.4615 29.479 15.4615C27.6856 15.4615 26.2267 14.8635 26.2267 14.1262C26.2267 13.6733 26.7687 13.2785 27.6049 13.0347L27.0917 12.518C26.1344 12.8838 25.5116 13.4701 25.5116 14.1262C25.5116 15.2409 27.2877 16.1407 29.479 16.1407C31.6704 16.1407 33.4465 15.2409 33.4465 14.1262C33.4465 13.4701 32.8352 12.8896 31.8837 12.5238H31.878Z" fill="white"/>
<path d="M33.0024 5.76018C33.0024 5.76018 31.8318 3.89656 29.4848 3.94301C27.1378 3.89656 25.9671 5.76018 25.9671 5.76018C24.5832 7.60639 25.7595 9.77771 25.7595 9.77771C26.7341 11.682 28.3661 13.3424 28.3661 13.3424C28.689 13.6559 29.0696 13.9056 29.4848 13.9172C29.9 13.9056 30.2806 13.6559 30.6035 13.3424C30.6035 13.3424 32.2355 11.682 33.21 9.77771C33.21 9.77771 34.3922 7.60639 33.0024 5.76018ZM29.4848 9.67902C28.6025 9.67902 27.8817 8.95911 27.8817 8.06504C27.8817 7.17677 28.5967 6.45106 29.4848 6.45106C30.3671 6.45106 31.0879 7.17096 31.0879 8.06504C31.0879 8.95911 30.3729 9.67902 29.4848 9.67902Z" fill="white"/>
<path d="M25.2868 13.5456C25.16 13.8011 25.1196 14.0855 25.1657 14.3642C25.2003 14.5732 25.2868 14.7706 25.4079 14.939C24.5372 15.0202 23.6145 15.1422 22.6342 15.3105C21.5962 15.4905 20.6274 15.6995 19.7393 15.9259C19.7393 15.9259 17.721 16.4136 15.9449 17.1161C15.5701 17.2612 15.2125 17.4528 14.8838 17.6909C14.7108 17.8186 14.5494 17.9521 14.3937 18.1031C14.3129 18.2076 13.9612 18.6952 14.1053 19.2119C14.1226 19.2758 14.1918 19.4442 14.3937 19.6648C14.6359 19.9377 15.0857 20.1583 16.8791 20.3615C17.1155 20.3905 17.3116 20.4079 17.6922 20.4427C17.9921 20.4718 18.5168 20.5182 19.1223 20.5647C19.9527 20.6285 20.5697 20.6576 20.737 20.6692C21.948 20.733 23.7068 20.9536 24.9927 21.122C27.2187 21.4123 29.6291 21.8245 30.3961 22.3238C30.3961 22.3238 35.6841 24.1584 32.8354 28.4139C32.8354 28.4139 31.7801 30.6317 26.0538 32.7566C26.0538 32.7566 19.624 34.8582 14.2495 35.6536C12.5195 35.9323 10.7492 36.1936 8.93267 36.4374C5.85329 36.8438 2.8777 37.1631 -0.00561523 37.3953V30.295C2.38177 30.2079 4.84413 30.0628 7.38721 29.8654C11.3085 29.5519 15.0395 29.1106 18.5629 28.5939C18.5629 28.5939 24.0816 28.0308 27.1668 26.231C27.1668 26.231 28.8391 25.1105 26.4056 24.0423C26.4056 24.0423 25.2926 23.4791 19.7105 22.9798C19.7105 22.9798 13.2519 22.8347 11.4585 20.8491C11.4585 20.8491 10.8876 20.3034 10.8703 19.4732C10.8472 18.2076 12.1735 17.2845 13.0443 16.6807C13.9439 16.0595 14.7339 15.7808 16.066 15.3105C16.8964 15.0202 17.7383 14.7706 18.5918 14.5732C20.0104 14.2249 21.106 14.0565 22.0575 13.9172C22.911 13.7952 24.0009 13.6559 25.2753 13.5514L25.2868 13.5456Z" fill="white"/>
<defs>
<linearGradient id="paint0_linear_5491_1275" x1="20.9503" y1="1.27828" x2="20.8042" y2="42.1036" gradientUnits="userSpaceOnUse">
<stop stop-color="#139A89"/>
<stop offset="1" stop-color="#162154"/>
</linearGradient>
</defs>
</svg>
