<svg width="22" height="22" viewBox="0 0 22 22" fill="none" xmlns="http://www.w3.org/2000/svg">
<mask id="mask0_6757_60" style="mask-type:luminance" maskUnits="userSpaceOnUse" x="0" y="0" width="22" height="22">
<path d="M21.7253 0.0532227H0V21.7786H21.7253V0.0532227Z" fill="white"/>
</mask>
<g mask="url(#mask0_6757_60)">
<path d="M15.5473 1.11707C11.519 -0.806522 6.5177 -0.104976 3.191 3.24435C-0.135698 6.59366 -0.859877 11.5497 1.06372 15.6006L15.5473 1.11707Z" fill="#005B13"/>
<path d="M20.6613 6.23145L6.17773 20.715C10.206 22.6386 15.2073 21.9371 18.534 18.5877C21.8834 15.261 22.5849 10.2823 20.6613 6.23145Z" fill="#78C9FF"/>
<path d="M16.3846 1.56934L1.51636 16.4376C2.44421 18.0218 3.77942 19.3343 5.36354 20.2848L20.2318 5.41652C19.2813 3.80976 17.9688 2.49719 16.3846 1.56934Z" fill="black"/>
<path d="M15.547 1.11694L1.06348 15.6005C1.19926 15.8947 1.35767 16.1663 1.51609 16.4378L16.3844 1.56955C16.1128 1.38851 15.8412 1.25273 15.547 1.11694Z" fill="#FFD400"/>
<path d="M20.2091 5.39404L5.34082 20.2623C5.61239 20.4208 5.88395 20.5791 6.17816 20.7149L20.6617 6.23139C20.5259 5.93718 20.3901 5.66561 20.2091 5.39404Z" fill="#FFD400"/>
</g>
</svg>
