<svg width="39" height="40" viewBox="0 0 39 40" fill="none" xmlns="http://www.w3.org/2000/svg">
<path d="M13.7318 0.199463C12.7372 0.300364 11.8147 0.574238 10.9643 0.963427C11.5408 0.977841 12.103 0.992255 12.6652 1.06433L13.7318 0.199463ZM16.3552 0.213877L14.8273 1.4391C15.2453 1.54 15.6634 1.6409 16.067 1.77063L17.8832 0.401265C17.3787 0.314778 16.8742 0.257121 16.3552 0.213877ZM19.9733 0.920183L17.8976 2.44811C18.3444 2.6355 18.7913 2.85171 19.2093 3.08234L21.6165 1.52559C21.0832 1.29496 20.5354 1.09316 19.9733 0.920183ZM10.6904 1.77063C3.33903 1.81388 -0.72583 9.62649 0.124621 18.2895C1.66696 31.7958 10.2579 37.6625 17.3643 38.8301C19.2093 38.9886 20.9967 38.8157 22.6255 38.34V31.0031H14.3949C13.9625 31.0031 13.5733 30.6139 13.5733 30.1814L13.5877 24.4301C13.5877 23.9977 13.9769 23.6085 14.4093 23.6085H22.6111V15.3634C22.6255 14.9598 23.0435 14.5562 23.4183 14.5274C25.1336 14.5418 26.8778 14.5418 28.348 14.5418C25.1913 7.27694 18.8634 1.78505 10.6904 1.77063ZM23.3174 2.36162L20.7805 4.01928C21.2417 4.32198 21.7174 4.65352 22.1498 4.99946L24.8597 3.32739C24.3697 2.98144 23.8507 2.64991 23.3174 2.36162ZM26.2435 4.40847L23.4471 6.10937C23.8796 6.51297 24.312 6.93099 24.7156 7.37784L27.5697 5.60487C27.1516 5.17243 26.7048 4.78325 26.2435 4.40847ZM28.694 6.83009L25.7823 8.63189C26.2868 9.29496 26.7624 9.95802 27.2093 10.6787L30.2796 8.92018C29.7895 8.18505 29.2561 7.49315 28.694 6.83009ZM31.1588 10.3184L28.0453 12.0914C28.3769 12.6823 28.6651 13.2877 28.9534 13.9076L32.0525 12.0337C31.7787 11.4427 31.476 10.8661 31.1588 10.3184ZM32.73 13.5472L30.0057 15.1904C30.0345 15.6661 30.0201 16.1706 30.0201 16.6607C30.0778 16.8481 30.1498 17.0499 30.2075 17.2517L33.4507 15.5652C33.2345 14.8877 32.9895 14.1959 32.73 13.5472ZM23.4327 15.3634V24.4301H14.4093L14.3949 30.1814H23.4471V39.2193L29.1985 39.2481V30.1814H38.2219L38.2507 24.4157H29.1985V15.3634L23.4327 15.3634ZM33.912 17.1796L30.6688 18.8661C30.8273 19.4139 30.9715 19.976 31.0868 20.5094L34.3444 18.8229C34.2147 18.2895 34.0706 17.7418 33.912 17.1796ZM30.0201 19.5868V23.594H30.7985C30.6543 22.3256 30.3949 20.9995 30.0201 19.5868ZM34.7048 20.495L31.4327 22.1959C31.5048 22.6715 31.5624 23.1328 31.6057 23.594H33.0471L34.9931 22.8157C34.9354 22.0661 34.8489 21.3022 34.7048 20.495ZM31.0724 31.0031C30.9715 31.3202 30.8706 31.6229 30.7552 31.9256L33.4507 31.3634C33.5228 31.2481 33.5805 31.1328 33.6381 31.0031H31.0724ZM32.1246 33.3094L30.0345 33.7418V35.1688C30.7985 34.6499 31.5048 34.0301 32.1246 33.3094Z" fill="#127D77"/>
</svg>
