<svg width="44" height="40" viewBox="0 0 44 40" fill="none" xmlns="http://www.w3.org/2000/svg">
<path fill-rule="evenodd" clip-rule="evenodd" d="M43.4365 5.08502C43.4558 3.88442 41.9181 2.67469 39.5153 1.73707C26.8776 -3.19363 5.30314 3.43305 18.118 8.43298C27.5941 12.1298 43.4365 9.2493 43.4365 5.08502ZM14.1969 34.3955C14.1969 35.3138 14.4319 36.8026 13.1476 36.8026C11.8638 36.8026 12.0984 35.3143 12.0984 34.396C8.70692 33.5706 7.7371 29.0445 9.76959 29.0445C11.2675 29.0445 10.3723 30.6128 11.5005 31.7409C12.9555 33.1959 15.4758 32.1783 15.4758 30.0938C15.4758 27.2326 8.7198 28.0527 8.7198 23.3378C8.7198 21.2843 10.1362 19.5127 12.0978 19.0356C12.0978 18.1173 11.8627 16.629 13.1471 16.629C14.4314 16.629 14.1963 18.1178 14.1963 19.0361C17.4922 19.8411 18.6198 24.387 16.5251 24.387C15.0298 24.387 15.9143 22.807 14.7958 21.689C13.343 20.2362 10.8183 21.2564 10.8183 23.3378C10.8183 26.1989 17.5743 25.3783 17.5743 30.0938C17.5749 32.1461 16.1564 33.9162 14.1969 34.3955ZM13.1476 14.1408C1.97344 14.1408 -3.6437 27.7108 4.25497 35.609C12.1542 43.5076 25.7231 37.8894 25.7231 26.7163C25.7231 19.7623 20.0963 14.1526 13.1476 14.1408ZM24.2949 17.1727C21.8014 14.2632 18.2119 12.3633 14.1969 12.0793V8.66806C20.363 13.4345 37.274 13.4329 43.4365 8.66859V12.389C43.4209 13.5945 41.9256 14.7779 39.5159 15.7182C35.3526 17.3423 29.3743 17.7845 24.2949 17.1727ZM27.6853 24.7085C32.0932 24.8266 36.4078 24.2164 39.5153 23.0039C41.9256 22.0636 43.4209 20.8802 43.4365 19.6753V15.9549C39.437 19.0463 31.6397 19.8218 25.8863 19.4279C26.8013 21.023 27.425 22.808 27.6853 24.7085ZM26.8566 31.9604C27.4701 30.3573 27.8103 28.6195 27.8211 26.8027C33.1296 26.9348 39.8808 25.988 43.4365 23.2396V26.96C43.4209 28.1654 41.9256 29.3483 39.5159 30.2886C36.1046 31.6202 31.4562 32.1757 26.8566 31.9604ZM21.737 38.615C23.4314 37.3897 24.8499 35.8156 25.8911 33.9967C31.6408 34.4159 39.4804 33.5824 43.4365 30.5248V34.2264C43.4461 35.434 41.9256 36.6341 39.5153 37.5744C34.678 39.462 27.3558 39.7706 21.737 38.615Z" fill="#127D77"/>
</svg>
